<?xml version="1.0" encoding="iso-8859-1"?>
<!-- Generator: Adobe Illustrator 19.1.0, SVG Export Plug-In . SVG Version: 6.00 Build 0)  -->
<svg version="1.1" id="Capa_1" xmlns="http://www.w3.org/2000/svg" xmlns:xlink="http://www.w3.org/1999/xlink" x="0px" y="0px"
	 viewBox="0 0 63 63" style="enable-background:new 0 0 63 63;" xml:space="preserve">
<g>
	<g id="group-26svg">
		<path id="path-1_17_" d="M61.501,58.085h-60c-0.532,0-1.024-0.281-1.293-0.739c-0.27-0.457-0.277-1.023-0.019-1.488L27.042,7.453
			c0.02-0.037,0.042-0.072,0.065-0.107c1.02-1.522,2.711-2.43,4.526-2.43c1.744,0,3.297,0.825,4.261,2.265
			c0.024,0.035,0.046,0.072,0.067,0.109l26.852,48.57c0.257,0.464,0.249,1.03-0.02,1.487C62.523,57.805,62.032,58.085,61.501,58.085
			z M4.049,55.085h54.909L33.37,8.805c-0.543-0.772-1.318-0.889-1.737-0.889c-0.794,0-1.539,0.393-2.002,1.054L4.049,55.085z"/>
		<path id="path-2_17_" d="M35.769,34.376c-0.48,0.555-0.959,1.106-1.439,1.659c-1.535-1.041-3.07-0.978-4.605,0
			c-0.442-0.52-0.881-1.041-1.323-1.562C30.488,33.047,33.349,32.813,35.769,34.376z"/>
		<path id="path-3_7_" d="M34.609,45.76c-0.23-0.693-0.458-1.389-0.689-2.085c1.681-0.787,2.411-2.139,2.355-3.957
			c0.673-0.113,1.346-0.227,2.02-0.338C38.452,41.901,37.193,44.48,34.609,45.76z"/>
		<path id="path-4_5_" d="M29.283,45.762c0.227-0.695,0.457-1.391,0.686-2.085c-1.679-0.789-2.408-2.141-2.354-3.959
			c-0.674-0.113-1.347-0.227-2.017-0.338C25.439,41.901,26.7,44.48,29.283,45.762z"/>
		<path id="path-5_5_" d="M30.271,40.085h0.587c0.469,1,1.724,1,2.154,0h0.591c-2.508,4,2.664,11.276,8.803,6.052
			c-1.736,1.944-3.686,3.489-6.091,3.59c-1.508-0.02-3.016-0.276-4.521-0.965c-1.192,0.648-2.47,1.137-3.831,1.116
			c-2.534-0.031-4.687-1.831-6.717-3.703C26.471,50.375,31.928,46.085,30.271,40.085z"/>
		<path id="path-6_4_" d="M33.887,40.452l-0.679-0.009c0.26-1.054-0.167-1.636-1.07-1.893l-0.002-0.673
			c4.744,0.051,7.85-8.023,0.197-10.555c2.56,0.472,4.723,1.442,6.061,3.442c0.765,1.3,1.244,2.773,1.436,4.419
			c1.175,0.683,2.212,1.544,2.902,2.719c1.291,2.18,1.192,4.759,0.648,7.469C44.255,38.722,37.8,36.132,33.887,40.452z"/>
		<path id="path-7_1_" d="M30.081,40.438l0.63,0.005c-0.524-0.817-0.014-1.734,0.865-1.904l0.005-0.662
			c-4.741,0.051-7.851-8.023-0.195-10.553c-2.565,0.472-4.726,1.442-6.062,3.442c-0.765,1.298-1.246,2.771-1.438,4.417
			c-1.173,0.683-2.211,1.544-2.9,2.719c-1.293,2.18-1.19,4.761-0.647,7.469C19.465,38.722,26.163,36.121,30.081,40.438z"/>
	</g>
</g>
<g>
</g>
<g>
</g>
<g>
</g>
<g>
</g>
<g>
</g>
<g>
</g>
<g>
</g>
<g>
</g>
<g>
</g>
<g>
</g>
<g>
</g>
<g>
</g>
<g>
</g>
<g>
</g>
<g>
</g>
</svg>
